<?xml version="1.0" encoding="utf-8"?>
<!-- Generator: Adobe Illustrator 25.2.1, SVG Export Plug-In . SVG Version: 6.00 Build 0)  -->
<svg version="1.1" id="Layer_1" xmlns="http://www.w3.org/2000/svg" xmlns:xlink="http://www.w3.org/1999/xlink" x="0px" y="0px"
	 viewBox="0 0 792 612" style="enable-background:new 0 0 792 612;" xml:space="preserve">
<style type="text/css">
	.st0{fill:#FFFFFF;}
</style>
<rect width="792" height="612"/>
<g>
	<path class="st0" d="M79,326.9H67.5L59.2,312h-6.5v14.9H42.2v-41.8H61c1.6,0,2.8,0,3.5,0.1c5.7,0.4,9.6,2.5,11.8,6.5
		c1.1,2.1,1.7,4.4,1.7,7c0,3.6-1.1,6.4-3.3,8.5c-0.6,0.6-1.2,1.1-2,1.5c-0.8,0.4-2,0.9-3.4,1.5L79,326.9z M67.5,298.5
		c0-3.7-2-5.6-6-5.6h-8.9v11.4h8.6c1.1,0,2-0.1,2.8-0.4C66.4,303.1,67.5,301.3,67.5,298.5z"/>
	<path class="st0" d="M116.9,326.9H84.1v-41.8H115v8H94.5v7.6h19.1v7.9H94.5v9.9h22.4V326.9z"/>
	<path class="st0" d="M156.9,313.4c0,2.3-0.6,4.5-1.7,6.5c-2.4,4.4-6.8,6.9-13.1,7.7c-1.5,0.2-2.9,0.3-4.2,0.3
		c-6.3,0-11.6-1.7-15.7-5c-0.8-0.7-1.9-1.9-3.3-3.5l7.9-5c1,1,1.6,1.6,1.8,1.8c2.8,2.3,6.2,3.5,10.2,3.5c1.3,0,2.3-0.1,3.3-0.4
		c0.3-0.1,0.8-0.2,1.3-0.4c0.6-0.2,1.2-0.7,2-1.4c0.7-0.7,1.1-1.6,1.1-2.5c0-0.5-0.1-1-0.3-1.4c-0.2-0.4-0.5-0.8-0.9-1.1
		c-0.4-0.3-0.8-0.5-1.2-0.7c-0.4-0.2-0.9-0.4-1.7-0.5c-0.7-0.2-1.3-0.3-1.7-0.3c-0.4-0.1-1-0.1-1.8-0.2c-0.8-0.1-1.3-0.2-1.7-0.2
		c-2-0.2-4-0.6-5.9-1.1c-3.6-0.9-6.2-2.4-7.9-4.4c-0.8-0.9-1.4-1.9-1.8-3.1c-0.4-1.2-0.5-2.4-0.5-3.7c0-0.9,0.1-1.8,0.2-2.9
		c0.5-2.6,1.7-4.9,3.6-6.7c3.1-2.9,7.4-4.4,13-4.4c5.1,0,9.7,1.4,13.8,4.1c1,0.7,2.5,1.9,4.6,3.7l-7.7,5.5c-2.3-2.3-4.7-3.8-7-4.6
		c-1.8-0.4-3.1-0.6-3.9-0.6c-2,0-3.5,0.5-4.6,1.4c-1.1,0.9-1.6,1.9-1.6,3c0,0.9,0.3,1.6,0.9,2.2c0.3,0.3,0.6,0.6,0.9,0.8
		c0.3,0.2,0.8,0.4,1.3,0.5c0.5,0.1,1,0.2,1.4,0.3c0.4,0.1,1,0.1,1.9,0.3c0.9,0.1,1.6,0.2,2.1,0.3c2,0.3,4.4,0.8,7,1.4
		c4.6,0.9,7.6,3.1,9,6.4C156.6,310.3,156.9,311.8,156.9,313.4z"/>
	<path class="st0" d="M195.8,326.9H163v-41.8h30.9v8h-20.5v7.6h19.1v7.9h-19.1v9.9h22.4V326.9z"/>
	<path class="st0" d="M238,326.9h-11.5l-8.3-14.9h-6.5v14.9h-10.5v-41.8H220c1.6,0,2.8,0,3.5,0.1c5.7,0.4,9.6,2.5,11.8,6.5
		c1.1,2.1,1.7,4.4,1.7,7c0,3.6-1.1,6.4-3.3,8.5c-0.6,0.6-1.2,1.1-2,1.5c-0.8,0.4-2,0.9-3.4,1.5L238,326.9z M226.5,298.5
		c0-3.7-2-5.6-6-5.6h-8.9v11.4h8.6c1.1,0,2-0.1,2.8-0.4C225.4,303.1,226.5,301.3,226.5,298.5z"/>
	<path class="st0" d="M278.5,285.1L264,326.9h-10.6L239,285.1h11.1l8.6,29.7l8.6-29.7H278.5z"/>
	<path class="st0" d="M318,326.9h-11.1l-2.1-6.7h-15.4l-2.1,6.7h-11.1l15.5-41.8h10.9L318,326.9z M302.4,312.7l-5.4-17.6l-5.1,17.6
		H302.4z"/>
	<path class="st0" d="M347.7,293.4h-10.8v33.5h-10.5v-33.5h-10.9v-8.2h32.2V293.4z"/>
	<path class="st0" d="M362.6,326.9h-10.4v-41.8h10.4V326.9z"/>
	<path class="st0" d="M411.1,306.3c0,3.3-0.7,6.5-2.1,9.6c-1.4,3.2-3.3,5.8-5.9,7.8c-3.6,2.9-8,4.4-13.1,4.4c-6,0-11-2-14.8-6
		c-4-4.2-6-9.6-6-16.3c0-5.1,1.3-9.6,4-13.5c3.9-5.7,9.4-8.5,16.7-8.5c6.2,0,11.2,1.9,14.9,5.8c2,2,3.5,4.6,4.6,7.6
		C410.5,300.4,411.1,303.4,411.1,306.3z M400.6,307c0.2-4.4-0.7-7.9-2.7-10.5c-1.1-1.4-2.4-2.5-4-3.1c-1.3-0.5-2.6-0.8-4-0.8
		c-1.7,0-3.2,0.4-4.7,1.2c-2,1.1-3.4,2.8-4.3,4.9c-0.9,2.2-1.4,4.5-1.4,7c0,4.6,1.2,8.1,3.5,10.6c1.9,2,4.2,3,7,3
		c2.8,0,5.2-1,7.2-3.1C399.4,314,400.5,310.9,400.6,307z"/>
	<path class="st0" d="M452.7,326.9h-10.2l-15.1-25.9l0.4,25.9h-10.1v-41.8h10.2l15.3,26.2l-0.4-26.2h10V326.9z"/>
	<path class="st0" d="M495.3,313.4c0,2.3-0.6,4.5-1.7,6.5c-2.4,4.4-6.8,6.9-13.1,7.7c-1.5,0.2-2.9,0.3-4.2,0.3
		c-6.3,0-11.6-1.7-15.7-5c-0.8-0.7-1.9-1.9-3.3-3.5l7.9-5c1,1,1.6,1.6,1.8,1.8c2.8,2.3,6.2,3.5,10.2,3.5c1.3,0,2.3-0.1,3.3-0.4
		c0.3-0.1,0.8-0.2,1.3-0.4c0.6-0.2,1.2-0.7,2-1.4c0.7-0.7,1.1-1.6,1.1-2.5c0-0.5-0.1-1-0.3-1.4c-0.2-0.4-0.5-0.8-0.9-1.1
		c-0.4-0.3-0.8-0.5-1.2-0.7c-0.4-0.2-0.9-0.4-1.7-0.5c-0.7-0.2-1.3-0.3-1.7-0.3c-0.4-0.1-1-0.1-1.8-0.2c-0.8-0.1-1.3-0.2-1.7-0.2
		c-2-0.2-4-0.6-5.9-1.1c-3.6-0.9-6.2-2.4-7.9-4.4c-0.8-0.9-1.4-1.9-1.8-3.1c-0.4-1.2-0.5-2.4-0.5-3.7c0-0.9,0.1-1.8,0.2-2.9
		c0.5-2.6,1.7-4.9,3.6-6.7c3.1-2.9,7.4-4.4,13-4.4c5.1,0,9.7,1.4,13.8,4.1c1,0.7,2.5,1.9,4.6,3.7l-7.7,5.5c-2.3-2.3-4.7-3.8-7-4.6
		c-1.8-0.4-3.1-0.6-3.9-0.6c-2,0-3.5,0.5-4.6,1.4c-1.1,0.9-1.6,1.9-1.6,3c0,0.9,0.3,1.6,0.9,2.2c0.3,0.3,0.6,0.6,0.9,0.8
		c0.3,0.2,0.8,0.4,1.3,0.5c0.5,0.1,1,0.2,1.4,0.3c0.4,0.1,1,0.1,1.9,0.3c0.9,0.1,1.6,0.2,2.1,0.3c2,0.3,4.4,0.8,7,1.4
		c4.6,0.9,7.6,3.1,9,6.4C495,310.3,495.3,311.8,495.3,313.4z"/>
	<path class="st0" d="M555.1,317.4c-1.2,1.8-2.1,3.1-2.7,3.8c-0.9,1-1.9,1.9-3,2.8c-1.1,0.9-2.8,1.8-5.1,2.7
		c-2.3,0.9-4.7,1.4-7.2,1.4c-3,0-5.8-0.6-8.5-1.8c-2.6-1.1-4.7-2.7-6.4-4.7c-1.7-2-2.9-4.1-3.5-6.3c-0.7-2.2-1.1-4-1.3-5.4
		c-0.2-1.4-0.3-2.7-0.3-4c0-5.8,1.7-10.8,5.1-14.9c3.9-4.8,8.9-7.2,15.1-7.2c2.8,0,5.5,0.6,8.1,1.7c2.6,1.1,4.8,2.7,6.6,4.8
		c0.8,0.9,1.8,2.3,2.9,4.3l-8.2,4.1c-0.5-1-0.9-1.8-1.4-2.3c-0.4-0.5-0.8-1-1.3-1.6c-0.5-0.5-1.4-1.1-2.5-1.6
		c-1.2-0.6-2.4-0.8-3.7-0.8c-2.5,0-4.6,0.8-6.3,2.5c-2.6,2.4-4,6.1-4,10.8c0,1,0.1,2,0.2,2.8c0.6,4.7,2.4,7.9,5.5,9.6
		c1.3,0.8,2.8,1.2,4.6,1.2c1.3,0,2.5-0.2,3.5-0.6c1-0.4,1.9-1,2.7-1.7c0.7-0.7,1.3-1.3,1.6-1.8c0.3-0.4,0.7-1,1.1-1.8
		c0.1-0.1,0.1-0.2,0.2-0.3L555.1,317.4z"/>
	<path class="st0" d="M593,326.9h-32.8v-41.8h30.9v8h-20.5v7.6h19.1v7.9h-19.1v9.9H593V326.9z"/>
	<path class="st0" d="M633.5,326.9h-10.2l-15.1-25.9l0.4,25.9h-10.1v-41.8h10.2l15.3,26.2l-0.4-26.2h10V326.9z"/>
	<path class="st0" d="M670.2,293.4h-10.8v33.5h-10.5v-33.5H638v-8.2h32.2V293.4z"/>
	<path class="st0" d="M707.6,326.9h-32.8v-41.8h30.9v8h-20.5v7.6h19.1v7.9h-19.1v9.9h22.4V326.9z"/>
	<path class="st0" d="M749.8,326.9h-11.5L730,312h-6.5v14.9H713v-41.8h18.8c1.6,0,2.8,0,3.5,0.1c5.7,0.4,9.6,2.5,11.8,6.5
		c1.1,2.1,1.7,4.4,1.7,7c0,3.6-1.1,6.4-3.3,8.5c-0.6,0.6-1.2,1.1-2,1.5c-0.8,0.4-2,0.9-3.4,1.5L749.8,326.9z M738.4,298.5
		c0-3.7-2-5.6-6-5.6h-8.9v11.4h8.6c1.1,0,2-0.1,2.8-0.4C737.2,303.1,738.4,301.3,738.4,298.5z"/>
</g>
</svg>
