<?xml version="1.0" encoding="utf-8"?>
<svg version="1.1" id="Layer_1" x="0px" y="0px" viewBox="21.349 281.804 747.879 49.103" style="enable-background:new 0 0 792 612;" xmlns="http://www.w3.org/2000/svg">
  <style type="text/css">
	.st0{fill:#FFFFFF;}
</style>
  <g>
    <path d="M63.6,327.9h-12l-8.7-15.6H36v15.6H25v-43.8h19.7c1.7,0,2.9,0,3.7,0.1c6,0.4,10.1,2.6,12.3,6.8c1.2,2.2,1.7,4.6,1.7,7.3 c0,3.8-1.1,6.7-3.4,8.9c-0.6,0.6-1.3,1.1-2,1.6c-0.9,0.5-2,1-3.5,1.5L63.6,327.9z M51.6,298.1c0-3.9-2.1-5.8-6.3-5.8H36v11.9H45 c1.1,0,2.1-0.1,2.9-0.4C50.4,302.9,51.6,301,51.6,298.1z"/>
    <path d="M103.3,327.9H69v-43.8h32.4v8.4H79.9v8h20v8.3h-20v10.4h23.4V327.9z"/>
    <path d="M145.2,313.7c0,2.4-0.6,4.7-1.7,6.8c-2.5,4.6-7.1,7.3-13.8,8.1c-1.6,0.2-3,0.3-4.4,0.3c-6.7,0-12.2-1.8-16.5-5.3 c-0.9-0.7-2-2-3.5-3.7l8.3-5.2c1.1,1.1,1.7,1.7,1.9,1.9c2.9,2.4,6.5,3.7,10.7,3.7c1.3,0,2.5-0.1,3.4-0.4c0.3-0.1,0.8-0.2,1.4-0.5 c0.6-0.2,1.3-0.7,2.1-1.5c0.8-0.8,1.2-1.7,1.2-2.7c0-0.5-0.1-1-0.3-1.5c-0.2-0.5-0.5-0.8-1-1.1c-0.4-0.3-0.9-0.5-1.3-0.7 c-0.4-0.2-1-0.4-1.7-0.6c-0.7-0.2-1.3-0.3-1.8-0.3c-0.5-0.1-1.1-0.1-1.9-0.2c-0.8-0.1-1.4-0.2-1.7-0.2c-2.1-0.2-4.2-0.6-6.2-1.1 c-3.8-1-6.5-2.5-8.2-4.6c-0.8-1-1.4-2-1.9-3.2c-0.4-1.2-0.6-2.5-0.6-3.8c0-0.9,0.1-1.9,0.2-3c0.5-2.8,1.8-5.1,3.8-7 c3.2-3.1,7.8-4.6,13.6-4.6c5.4,0,10.2,1.4,14.5,4.3c1,0.7,2.6,2,4.8,3.9l-8.1,5.8c-2.4-2.4-4.9-4-7.4-4.8c-1.9-0.4-3.2-0.6-4.1-0.6 c-2.1,0-3.7,0.5-4.8,1.5c-1.1,1-1.7,2-1.7,3.2c0,0.9,0.3,1.7,0.9,2.3c0.3,0.3,0.6,0.6,1,0.8c0.4,0.2,0.8,0.4,1.4,0.5 c0.6,0.1,1,0.2,1.5,0.3c0.4,0.1,1.1,0.2,2,0.3c0.9,0.1,1.7,0.2,2.2,0.3c2.1,0.3,4.6,0.8,7.3,1.4c4.8,1,7.9,3.2,9.4,6.8 C145,310.5,145.2,312.1,145.2,313.7z"/>
    <path d="M186.1,327.9h-34.4v-43.8h32.4v8.4h-21.5v8h20v8.3h-20v10.4h23.4V327.9z"/>
    <path d="M230.3,327.9h-12l-8.7-15.6h-6.8v15.6h-11v-43.8h19.7c1.7,0,2.9,0,3.7,0.1c6,0.4,10.1,2.6,12.3,6.8 c1.2,2.2,1.7,4.6,1.7,7.3c0,3.8-1.1,6.7-3.4,8.9c-0.6,0.6-1.3,1.1-2,1.6c-0.9,0.5-2,1-3.5,1.5L230.3,327.9z M218.3,298.1 c0-3.9-2.1-5.8-6.3-5.8h-9.3v11.9h9.1c1.1,0,2.1-0.1,2.9-0.4C217.1,302.9,218.3,301,218.3,298.1z"/>
    <path d="M272.8,284.1l-15.2,43.8h-11.2l-15-43.8h11.7l9.1,31.1l9-31.1H272.8z"/>
    <path d="M314.2,327.9h-11.7l-2.2-7h-16.1l-2.2,7h-11.7l16.2-43.8h11.4L314.2,327.9z M297.9,313l-5.7-18.5l-5.4,18.5H297.9z"/>
    <path d="M345.3,292.8H334v35.2h-11v-35.2h-11.4v-8.6h33.8V292.8z"/>
    <path d="M361,327.9h-10.9v-43.8H361V327.9z"/>
    <path d="M411.8,306.3c0,3.4-0.7,6.8-2.2,10.1c-1.4,3.3-3.5,6-6.1,8.2c-3.8,3.1-8.4,4.6-13.8,4.6c-6.3,0-11.5-2.1-15.5-6.3 c-4.2-4.4-6.3-10.1-6.3-17.1c0-5.4,1.4-10.1,4.2-14.1c4.1-6,9.9-8.9,17.5-8.9c6.5,0,11.7,2,15.6,6.1c2.1,2.1,3.7,4.8,4.8,8 C411.2,300.1,411.8,303.2,411.8,306.3z M400.8,307.1c0.2-4.6-0.8-8.3-2.8-11c-1.1-1.5-2.5-2.6-4.2-3.3c-1.4-0.5-2.8-0.8-4.2-0.8 c-1.7,0-3.4,0.4-4.9,1.2c-2.1,1.2-3.6,2.9-4.5,5.2c-1,2.3-1.4,4.7-1.4,7.3c0,4.8,1.2,8.5,3.7,11.1c2,2.1,4.4,3.2,7.4,3.2 c3,0,5.5-1.1,7.6-3.3C399.5,314.4,400.7,311.2,400.8,307.1z"/>
    <path d="M455.4,327.9h-10.7l-15.9-27.1l0.4,27.1h-10.5v-43.8h10.7l16,27.5l-0.4-27.5h10.5V327.9z"/>
    <path d="M500.1,313.7c0,2.4-0.6,4.7-1.7,6.8c-2.5,4.6-7.1,7.3-13.8,8.1c-1.6,0.2-3,0.3-4.4,0.3c-6.7,0-12.2-1.8-16.5-5.3 c-0.9-0.7-2-2-3.5-3.7l8.3-5.2c1.1,1.1,1.7,1.7,1.9,1.9c2.9,2.4,6.5,3.7,10.7,3.7c1.3,0,2.5-0.1,3.4-0.4c0.3-0.1,0.8-0.2,1.4-0.5 c0.6-0.2,1.3-0.7,2.1-1.5c0.8-0.8,1.2-1.7,1.2-2.7c0-0.5-0.1-1-0.3-1.5c-0.2-0.5-0.5-0.8-1-1.1c-0.4-0.3-0.9-0.5-1.3-0.7 c-0.4-0.2-1-0.4-1.7-0.6s-1.3-0.3-1.8-0.3c-0.5-0.1-1.1-0.1-1.9-0.2c-0.8-0.1-1.4-0.2-1.7-0.2c-2.1-0.2-4.2-0.6-6.2-1.1 c-3.8-1-6.5-2.5-8.2-4.6c-0.8-1-1.4-2-1.9-3.2c-0.4-1.2-0.6-2.5-0.6-3.8c0-0.9,0.1-1.9,0.2-3c0.5-2.8,1.8-5.1,3.8-7 c3.2-3.1,7.8-4.6,13.6-4.6c5.4,0,10.2,1.4,14.5,4.3c1,0.7,2.6,2,4.8,3.9l-8.1,5.8c-2.4-2.4-4.9-4-7.4-4.8c-1.9-0.4-3.2-0.6-4.1-0.6 c-2.1,0-3.7,0.5-4.8,1.5c-1.1,1-1.7,2-1.7,3.2c0,0.9,0.3,1.7,0.9,2.3c0.3,0.3,0.6,0.6,1,0.8c0.4,0.2,0.8,0.4,1.4,0.5 c0.6,0.1,1,0.2,1.5,0.3c0.4,0.1,1.1,0.2,2,0.3c0.9,0.1,1.7,0.2,2.2,0.3c2.1,0.3,4.6,0.8,7.3,1.4c4.8,1,7.9,3.2,9.4,6.8 C499.8,310.5,500.1,312.1,500.1,313.7z"/>
    <path d="M562.8,318c-1.2,1.9-2.2,3.2-2.9,4c-0.9,1-2,2-3.1,2.9c-1.2,0.9-3,1.9-5.4,2.8c-2.4,0.9-4.9,1.4-7.5,1.4 c-3.1,0-6.1-0.6-8.9-1.9c-2.7-1.2-4.9-2.8-6.7-4.9c-1.8-2.1-3-4.3-3.7-6.6c-0.7-2.3-1.2-4.2-1.4-5.7c-0.2-1.4-0.3-2.9-0.3-4.2 c0-6.1,1.8-11.3,5.3-15.6c4.1-5,9.3-7.6,15.9-7.6c3,0,5.8,0.6,8.5,1.8c2.7,1.2,5,2.9,6.9,5.1c0.8,1,1.8,2.5,3,4.5l-8.6,4.3 c-0.5-1-1-1.8-1.4-2.4c-0.4-0.5-0.8-1.1-1.4-1.6s-1.4-1.1-2.7-1.7c-1.2-0.6-2.5-0.9-3.9-0.9c-2.6,0-4.8,0.9-6.6,2.6 c-2.8,2.6-4.2,6.3-4.2,11.4c0,1.1,0.1,2.1,0.2,3c0.6,4.9,2.5,8.3,5.8,10.1c1.4,0.8,3,1.2,4.8,1.2c1.4,0,2.6-0.2,3.7-0.6 c1.1-0.4,2-1,2.8-1.8c0.8-0.8,1.3-1.4,1.6-1.9c0.3-0.5,0.7-1.1,1.2-1.9c0.1-0.1,0.1-0.2,0.2-0.3L562.8,318z"/>
    <path d="M602.6,327.9h-34.4v-43.8h32.4v8.4h-21.5v8h20v8.3h-20v10.4h23.4V327.9z"/>
    <path d="M645,327.9h-10.7l-15.9-27.1l0.4,27.1h-10.5v-43.8H619l16,27.5l-0.4-27.5H645V327.9z"/>
    <path d="M683.5,292.8h-11.4v35.2h-11v-35.2h-11.4v-8.6h33.8V292.8z"/>
    <path d="M722.7,327.9h-34.4v-43.8h32.4v8.4h-21.5v8h20v8.3h-20v10.4h23.4V327.9z"/>
    <path d="M767,327.9h-12l-8.7-15.6h-6.8v15.6h-11v-43.8h19.7c1.7,0,2.9,0,3.7,0.1c6,0.4,10.1,2.6,12.3,6.8c1.2,2.2,1.7,4.6,1.7,7.3 c0,3.8-1.1,6.7-3.4,8.9c-0.6,0.6-1.3,1.1-2,1.6c-0.9,0.5-2,1-3.5,1.5L767,327.9z M755,298.1c0-3.9-2.1-5.8-6.3-5.8h-9.3v11.9h9.1 c1.1,0,2.1-0.1,2.9-0.4C753.8,302.9,755,301,755,298.1z"/>
  </g>
</svg>